<svg width="40" height="40" viewBox="0 0 40 40" fill="none" xmlns="http://www.w3.org/2000/svg">
<ellipse cx="25.2042" cy="15.3299" rx="1.0873" ry="1.08512" fill="white"/>
<ellipse cx="14.3311" cy="15.3299" rx="1.08731" ry="1.08512" fill="white"/>
<ellipse cx="14.3311" cy="28.3512" rx="1.08731" ry="1.08512" fill="white"/>
<ellipse cx="19.7677" cy="30.5215" rx="1.0873" ry="1.08512" fill="white"/>
<ellipse cx="11.0692" cy="21.7748" rx="1.08731" ry="1.08512" fill="white"/>
<ellipse cx="28.4661" cy="21.7748" rx="1.0873" ry="1.08512" fill="white"/>
<ellipse cx="25.2042" cy="28.3512" rx="1.0873" ry="1.08512" fill="white"/>
<mask id="path-8-inside-1_59561_623" fill="white">
<path fill-rule="evenodd" clip-rule="evenodd" d="M24.9215 33.0581C25.3298 32.8622 25.8226 32.9298 26.1385 33.2542L27.9644 35.1292C28.2319 35.4039 28.6734 35.4039 28.941 35.1291V35.1291C29.1987 34.8645 29.1987 34.4427 28.941 34.1781L27.5843 32.7849C27.1584 32.3475 27.2228 31.6356 27.682 31.2333C30.3238 28.9195 32 25.4688 32 21.6145C32 14.6477 26.5235 9 19.7678 9C13.0122 9 7.53564 14.6477 7.53564 21.6145C7.53564 25.4288 9.17729 28.8477 11.7717 31.1608C12.2244 31.5644 12.2849 32.2708 11.8617 32.7054L10.4276 34.1781C10.1698 34.4427 10.1698 34.8645 10.4276 35.1291V35.1291C10.6951 35.4039 11.1366 35.4039 11.4042 35.1292L13.2838 33.199C13.6025 32.8718 14.1004 32.8061 14.5102 33.0076C16.103 33.7907 17.8858 34.229 19.7678 34.229C21.609 34.229 23.3553 33.8095 24.9215 33.0581ZM19.7678 32.8274C25.7728 32.8274 30.6409 27.8072 30.6409 21.6145C30.6409 15.4218 25.7728 10.4016 19.7678 10.4016C13.7628 10.4016 8.89478 15.4218 8.89478 21.6145C8.89478 27.8072 13.7628 32.8274 19.7678 32.8274ZM19.0083 21.298V17.5001V13.9409C19.0083 13.5094 19.3581 13.1596 19.7895 13.1596V13.1596C20.221 13.1596 20.5708 13.5094 20.5708 13.9409V17.5001V21.298V21.8406V22.1226C20.5708 22.5661 20.2113 22.9257 19.7677 22.9257V22.9257V22.9257C19.3483 22.9257 19.0083 22.5857 19.0083 22.1663V21.8406V21.298Z"/>
</mask>
<path fill-rule="evenodd" clip-rule="evenodd" d="M24.9215 33.0581C25.3298 32.8622 25.8226 32.9298 26.1385 33.2542L27.9644 35.1292C28.2319 35.4039 28.6734 35.4039 28.941 35.1291V35.1291C29.1987 34.8645 29.1987 34.4427 28.941 34.1781L27.5843 32.7849C27.1584 32.3475 27.2228 31.6356 27.682 31.2333C30.3238 28.9195 32 25.4688 32 21.6145C32 14.6477 26.5235 9 19.7678 9C13.0122 9 7.53564 14.6477 7.53564 21.6145C7.53564 25.4288 9.17729 28.8477 11.7717 31.1608C12.2244 31.5644 12.2849 32.2708 11.8617 32.7054L10.4276 34.1781C10.1698 34.4427 10.1698 34.8645 10.4276 35.1291V35.1291C10.6951 35.4039 11.1366 35.4039 11.4042 35.1292L13.2838 33.199C13.6025 32.8718 14.1004 32.8061 14.5102 33.0076C16.103 33.7907 17.8858 34.229 19.7678 34.229C21.609 34.229 23.3553 33.8095 24.9215 33.0581ZM19.7678 32.8274C25.7728 32.8274 30.6409 27.8072 30.6409 21.6145C30.6409 15.4218 25.7728 10.4016 19.7678 10.4016C13.7628 10.4016 8.89478 15.4218 8.89478 21.6145C8.89478 27.8072 13.7628 32.8274 19.7678 32.8274ZM19.0083 21.298V17.5001V13.9409C19.0083 13.5094 19.3581 13.1596 19.7895 13.1596V13.1596C20.221 13.1596 20.5708 13.5094 20.5708 13.9409V17.5001V21.298V21.8406V22.1226C20.5708 22.5661 20.2113 22.9257 19.7677 22.9257V22.9257V22.9257C19.3483 22.9257 19.0083 22.5857 19.0083 22.1663V21.8406V21.298Z" fill="white"/>
<path d="M13.2838 33.199L16.1495 35.9896L13.2838 33.199ZM14.5102 33.0076L16.275 29.418L14.5102 33.0076ZM11.4042 35.1292L8.53851 32.3385L11.4042 35.1292ZM10.4276 34.1781L13.2932 36.9687L10.4276 34.1781ZM27.5843 32.7849L24.7186 35.5756L27.5843 32.7849ZM27.682 31.2333L25.0465 28.2243L27.682 31.2333ZM11.7717 31.1608L9.10971 34.1464L11.7717 31.1608ZM11.8617 32.7054L8.99605 29.9147L11.8617 32.7054ZM28.941 34.1781L31.8067 31.3874L28.941 34.1781ZM27.9644 35.1292L30.8301 32.3385L27.9644 35.1292ZM26.1385 33.2542L23.2728 36.0449L26.1385 33.2542ZM24.9215 33.0581L23.1913 29.4516L24.9215 33.0581ZM23.2728 36.0449L25.0987 37.9198L30.8301 32.3385L29.0042 30.4636L23.2728 36.0449ZM31.8067 31.3874L30.45 29.9942L24.7186 35.5756L26.0753 36.9688L31.8067 31.3874ZM30.3175 34.2423C33.8075 31.1855 36 26.6466 36 21.6145H28C28 24.2911 26.8401 26.6534 25.0465 28.2243L30.3175 34.2423ZM36 21.6145C36 12.5555 28.8478 5 19.7678 5V13C24.1992 13 28 16.7399 28 21.6145H36ZM19.7678 5C10.6879 5 3.53564 12.5555 3.53564 21.6145H11.5356C11.5356 16.7399 15.3365 13 19.7678 13V5ZM3.53564 21.6145C3.53564 26.5943 5.68296 31.0912 9.10971 34.1464L14.4336 28.1752C12.6716 26.6042 11.5356 24.2633 11.5356 21.6145H3.53564ZM8.99605 29.9147L7.56188 31.3874L13.2932 36.9687L14.7274 35.496L8.99605 29.9147ZM14.2699 37.9198L16.1495 35.9896L10.4181 30.4083L8.53851 32.3385L14.2699 37.9198ZM12.7454 36.5972C14.8722 37.6429 17.2573 38.229 19.7678 38.229V30.229C18.5143 30.229 17.3337 29.9385 16.275 29.418L12.7454 36.5972ZM19.7678 38.229C22.2236 38.229 24.5598 37.6681 26.6517 36.6645L23.1913 29.4516C22.1508 29.9508 20.9944 30.229 19.7678 30.229V38.229ZM19.7678 36.8274C28.0971 36.8274 34.6409 29.8994 34.6409 21.6145H26.6409C26.6409 25.715 23.4485 28.8274 19.7678 28.8274V36.8274ZM34.6409 21.6145C34.6409 13.3296 28.0971 6.40161 19.7678 6.40161V14.4016C23.4485 14.4016 26.6409 17.514 26.6409 21.6145H34.6409ZM19.7678 6.40161C11.4385 6.40161 4.89478 13.3296 4.89478 21.6145H12.8948C12.8948 17.514 16.0871 14.4016 19.7678 14.4016V6.40161ZM4.89478 21.6145C4.89478 29.8994 11.4385 36.8274 19.7678 36.8274V28.8274C16.0871 28.8274 12.8948 25.715 12.8948 21.6145H4.89478ZM16.5708 21.298V21.8406H24.5708V21.298H16.5708ZM16.5708 21.8406V22.1226H24.5708V21.8406H16.5708ZM23.0083 22.1663V21.8406H15.0083V22.1663H23.0083ZM23.0083 21.8406V21.298H15.0083V21.8406H23.0083ZM23.0083 21.298V17.5001H15.0083V21.298H23.0083ZM23.0083 17.5001V13.9409H15.0083V17.5001H23.0083ZM16.5708 13.9409V17.5001H24.5708V13.9409H16.5708ZM16.5708 17.5001V21.298H24.5708V17.5001H16.5708ZM19.7895 9.15963C17.1489 9.15963 15.0083 11.3003 15.0083 13.9409H23.0083C23.0083 15.7186 21.5672 17.1596 19.7895 17.1596V9.15963ZM16.5708 22.1226C16.5708 20.357 18.0021 18.9257 19.7677 18.9257V26.9257C22.4204 26.9257 24.5708 24.7753 24.5708 22.1226H16.5708ZM16.1495 35.9896C15.1569 37.009 13.7521 37.0922 12.7454 36.5972L16.275 29.418C14.4487 28.52 12.048 28.7346 10.4181 30.4083L16.1495 35.9896ZM7.56185 37.9198C9.39966 39.807 12.4321 39.807 14.2699 37.9198L8.53851 32.3385C9.84118 31.0008 11.9906 31.0008 13.2933 32.3385L7.56185 37.9198ZM7.56188 31.3874C5.79175 33.2051 5.79174 36.1021 7.56185 37.9198L13.2933 32.3385C14.548 33.6269 14.5479 35.6803 13.2932 36.9687L7.56188 31.3874ZM30.45 29.9942C31.7927 31.3731 31.394 33.2994 30.3175 34.2423L25.0465 28.2243C23.0515 29.9717 22.524 33.3219 24.7186 35.5756L30.45 29.9942ZM19.7895 17.1596C18.0119 17.1596 16.5708 15.7186 16.5708 13.9409H24.5708C24.5708 11.3003 22.4302 9.15963 19.7895 9.15963V17.1596ZM9.10971 34.1464C8.0463 33.1983 7.66263 31.2839 8.99605 29.9147L14.7274 35.496C16.9071 33.2577 16.4025 29.9306 14.4336 28.1752L9.10971 34.1464ZM31.8067 37.9198C33.5768 36.1021 33.5768 33.2051 31.8067 31.3874L26.0753 36.9688C24.8206 35.6803 24.8206 33.6269 26.0753 32.3385L31.8067 37.9198ZM25.0987 37.9198C26.9365 39.807 29.9689 39.807 31.8067 37.9198L26.0753 32.3385C27.378 31.0008 29.5274 31.0008 30.8301 32.3385L25.0987 37.9198ZM19.7677 18.9257C21.5574 18.9257 23.0083 20.3765 23.0083 22.1663H15.0083C15.0083 24.7948 17.1391 26.9257 19.7677 26.9257V18.9257ZM29.0042 30.4636C27.3881 28.804 25.0117 28.5783 23.1913 29.4516L26.6517 36.6645C25.648 37.1461 24.257 37.0555 23.2728 36.0449L29.0042 30.4636Z" fill="white" mask="url(#path-8-inside-1_59561_623)"/>
<rect x="19" y="10" width="4" height="1.5" transform="rotate(-90 19 10)" fill="white"/>
<rect x="12" y="6" width="15.5" height="1.5" rx="0.75" fill="white"/>
</svg>
