<svg width="40" height="40" viewBox="0 0 40 40" fill="none" xmlns="http://www.w3.org/2000/svg">
<g clip-path="url(#clip0_59561_620)">
<path d="M32.8437 6.767C32.7434 6.317 32.3647 6 31.9325 6C31.9306 6 31.9287 6 31.9269 6C26.9891 6.033 14.9816 6.916 10.1337 14.38C7.61561 18.258 7.39905 23.293 9.48968 29.345C9.50561 29.392 9.53843 29.424 9.55999 29.467C8.8128 31.44 8.52311 32.753 8.51561 32.79C8.40686 33.33 8.7303 33.862 9.23655 33.978C9.30218 33.993 9.3678 34 9.43343 34C9.86561 34 10.2547 33.679 10.3494 33.21C10.3691 33.108 12.7578 22.837 21.2028 16.832C21.6341 16.526 21.7503 15.905 21.4625 15.445C21.1747 14.985 20.5934 14.86 20.1622 15.168C15.3734 18.573 12.4241 23.176 10.6897 26.824C9.44843 22.246 9.77374 18.447 11.6759 15.519C15.4194 9.755 24.2984 8.365 29.6581 8.071C28.505 9.872 27.245 13.174 27.245 19C27.245 22.12 26.4153 24.522 24.7803 26.14C22.1591 28.731 17.9009 28.974 14.7866 28.724C14.2691 28.679 13.82 29.095 13.7806 29.646C13.7412 30.196 14.1284 30.676 14.6441 30.718C15.2675 30.769 15.9331 30.8 16.625 30.8C19.7956 30.8 23.4941 30.137 26.0544 27.606C28.0887 25.595 29.12 22.7 29.12 19.001C29.12 9.902 32.3356 7.905 32.3516 7.896C32.7416 7.687 32.9459 7.219 32.8437 6.767Z" fill="white"/>
</g>
<defs>
<clipPath id="clip0_59561_620">
<rect width="30" height="32" fill="white" transform="translate(5 4)"/>
</clipPath>
</defs>
</svg>
