<svg width="130" height="240" viewBox="0 0 130 240" fill="none" xmlns="http://www.w3.org/2000/svg">
<path d="M64.44 231.28C52.12 231.28 41.8533 228.947 33.64 224.28C25.4267 219.613 19.2667 212.893 15.16 204.12C11.0533 195.347 9 184.987 9 173.04V165.48H38.68C38.68 166.227 38.68 167.067 38.68 168C38.68 168.747 38.68 169.587 38.68 170.52C38.8667 177.24 39.6133 183.307 40.92 188.72C42.4133 194.133 44.9333 198.427 48.48 201.6C52.2133 204.773 57.5333 206.36 64.44 206.36C71.72 206.36 77.2267 204.68 80.96 201.32C84.6933 197.773 87.2133 192.827 88.52 186.48C89.8267 180.133 90.48 172.853 90.48 164.64C90.48 152.693 88.24 142.987 83.76 135.52C79.4667 127.867 71.8133 123.667 60.8 122.92C60.24 122.733 59.4933 122.64 58.56 122.64C57.8133 122.64 57.16 122.64 56.6 122.64V92.68C57.16 92.68 57.8133 92.68 58.56 92.68C59.3067 92.68 59.96 92.68 60.52 92.68C71.16 92.3067 78.8133 89.5067 83.48 84.28C88.1467 79.0533 90.48 70.3733 90.48 58.24C90.48 47.9733 88.7067 39.76 85.16 33.6C81.8 27.44 74.9867 24.36 64.72 24.36C54.4533 24.36 47.64 27.8133 44.28 34.72C40.92 41.44 39.0533 50.12 38.68 60.76C38.68 61.5067 38.68 62.3467 38.68 63.28C38.68 64.0267 38.68 64.7733 38.68 65.52H9V57.96C9 45.8267 11.0533 35.4667 15.16 26.88C19.2667 18.2933 25.4267 11.6667 33.64 6.99999C42.04 2.33333 52.4 0 64.72 0C77.2267 0 87.5867 2.33333 95.8 6.99999C104.013 11.6667 110.173 18.3867 114.28 27.16C118.387 35.7467 120.44 46.1067 120.44 58.24C120.44 71.8667 117.453 82.7867 111.48 91C105.693 99.2133 97.8533 104.813 87.96 107.8C94.8667 109.853 100.653 113.4 105.32 118.44C110.173 123.48 113.907 129.92 116.52 137.76C119.133 145.413 120.44 154.373 120.44 164.64C120.44 178.08 118.573 189.84 114.84 199.92C111.107 209.813 105.133 217.56 96.92 223.16C88.7067 228.573 77.88 231.28 64.44 231.28Z" fill="#F2F2F2"/>
</svg>
