<svg width="130" height="240" viewBox="0 0 130 240" fill="none" xmlns="http://www.w3.org/2000/svg">
<path d="M9 228.76V207.48L66.68 117.6C70.9733 110.88 74.8933 104.627 78.44 98.84C82.1733 93.0533 85.16 86.9867 87.4 80.64C89.8267 74.1067 91.04 66.64 91.04 58.24C91.04 47.7867 89.36 39.5733 86 33.6C82.64 27.6267 76.76 24.64 68.36 24.64C61.2667 24.64 55.76 26.6 51.84 30.52C47.92 34.44 45.2133 39.5733 43.72 45.92C42.2267 52.2667 41.48 59.08 41.48 66.36V73.92H11.52V66.08C11.52 52.4533 13.2933 40.7867 16.84 31.08C20.5733 21.1867 26.4533 13.5333 34.48 8.12C42.6933 2.70666 53.52 0 66.96 0C85.2533 0 98.88 5.22667 107.84 15.68C116.8 25.9467 121.28 40.2267 121.28 58.52C121.28 68.2267 120.067 76.72 117.64 84C115.4 91.28 112.413 98.0933 108.68 104.44C104.947 110.787 100.84 117.32 96.36 124.04L44.28 203.56H115.96V228.76H9Z" fill="#F2F2F2"/>
</svg>
