<svg width="40" height="40" viewBox="0 0 40 40" fill="none" xmlns="http://www.w3.org/2000/svg">
<path fill-rule="evenodd" clip-rule="evenodd" d="M25.6173 5.07615C25.991 4.92137 26.4211 5.00692 26.7071 5.29292C27.6156 6.20142 28.8038 8.17065 29.7659 11.2108C30.7373 14.2804 31.5 18.5081 31.5 24C31.5 24.5523 31.0523 25 30.5 25H27V34C27 34.5523 26.5523 35 26 35C25.4477 35 25 34.5523 25 34V6.00003C25 5.59557 25.2436 5.23093 25.6173 5.07615ZM27 23H29.4912C29.4053 18.1836 28.7051 14.4875 27.8591 11.8142C27.5807 10.9346 27.2885 10.1715 27 9.51895V23Z" fill="white"/>
<path fill-rule="evenodd" clip-rule="evenodd" d="M13 5C13.5523 5 14 5.44772 14 6V34C14 34.5523 13.5523 35 13 35C12.4477 35 12 34.5523 12 34V6C12 5.44772 12.4477 5 13 5Z" fill="white"/>
<path fill-rule="evenodd" clip-rule="evenodd" d="M8.5 5C9.05228 5 9.5 5.44772 9.5 6V11.5C9.5 12.0569 9.69203 12.8152 10.2009 13.4166C10.68 13.9828 11.5145 14.5 12.9999 14.5C13.5522 14.5 13.9999 14.9477 13.9999 15.5C13.9999 16.0523 13.5522 16.5 12.9999 16.5C10.9855 16.5 9.56995 15.7672 8.6741 14.7084C7.80797 13.6848 7.5 12.4431 7.5 11.5V6C7.5 5.44772 7.94772 5 8.5 5Z" fill="white"/>
<path fill-rule="evenodd" clip-rule="evenodd" d="M17.5 5C16.9477 5 16.5 5.44772 16.5 6V11.5C16.5 12.0569 16.308 12.8152 15.7991 13.4166C15.32 13.9828 14.4854 14.5 12.9999 14.5C12.4476 14.5 12.0001 14.9477 12.0001 15.5C12.0001 16.0523 12.4476 16.5 12.9999 16.5C15.0144 16.5 16.43 15.7672 17.3259 14.7084C18.192 13.6848 18.5 12.4431 18.5 11.5V6C18.5 5.44772 18.0523 5 17.5 5Z" fill="white"/>
</svg>
