<svg width="101" height="40" viewBox="0 0 101 40" fill="none" xmlns="http://www.w3.org/2000/svg">
<g clip-path="url(#clip0_59359_600)">
<path d="M1.26449 27.5385C0.36955 26.2762 -0.0747041 24.7627 1.02073e-05 23.2308V16.8462C-0.108365 15.2977 0.308071 13.7575 1.18546 12.4615C2.05478 11.4615 3.39829 11 5.37403 11C7.34978 11 8.61425 11.4615 9.40455 12.3077C10.2626 13.3794 10.6846 14.7214 10.59 16.0769V17.6154H6.71754V15.8462C6.74881 15.3229 6.66808 14.799 6.48045 14.3077C6.38016 14.1094 6.2212 13.9448 6.02403 13.8351C5.82686 13.7255 5.60049 13.6757 5.37403 13.6923C4.82082 13.6923 4.42568 13.8462 4.26762 14.2308C4.08883 14.7773 4.00862 15.3499 4.03053 15.9231V24.1538C3.98879 24.71 4.0978 25.267 4.34665 25.7692C4.5047 26.1538 4.89985 26.3077 5.45306 26.3077C6.00627 26.3077 6.32239 26.1538 6.48045 25.7692C6.66013 25.2494 6.74049 24.7019 6.71754 24.1538V22.3077H10.59V23.8462C10.6704 25.2238 10.2508 26.5852 9.40455 27.6923C8.61425 28.6154 7.27075 29.0769 5.37403 29.0769C3.47732 29 2.05478 28.5385 1.26449 27.5385Z" fill="#111111"/>
<path d="M15.2527 11.2308H19.7574L23.0767 28.7692H19.4413L18.8091 25.0769H16.2011L15.5689 28.7692H11.8545L15.2527 11.2308ZM18.493 22.7692L17.5446 15.9231L16.5963 22.7692H18.493Z" fill="#111111"/>
<path d="M25.8427 14.1538H23.1557V11.2308H32.5602V14.0769H29.8732V28.7692H25.8427V14.1538Z" fill="#111111"/>
<path d="M39.752 11.2308H46.7066V13.0769H42.2019V18.8462H45.8372V20.6154H42.2019V27.0769H46.7066V28.8462H39.6729V11.2308H39.752Z" fill="#111111"/>
<path d="M48.7613 11.2308H50.5L55.6369 22.8462V11.2308H57.6917V28.7692H56.1111L50.8951 16.7692V28.7692H48.7613V11.2308Z" fill="#111111"/>
<path d="M60.0626 11.2308H67.0172V13.0769H62.5125V18.8462H66.1479V20.6154H62.5125V27.0769H67.0172V28.8462H60.0626V11.2308Z" fill="#111111"/>
<path d="M69.072 11.2308H72.7074C74.1375 11.1346 75.5587 11.5144 76.7379 12.3077C77.6072 13 78.0024 14.2308 78.0024 15.8462C78.0024 18.0769 77.2911 19.4615 75.7895 19.9231L78.3185 28.6923H75.8686L73.4977 20.4615H71.5219V28.6923H68.993V11.2308H69.072ZM72.5493 18.7692C73.364 18.8346 74.1761 18.6165 74.8412 18.1538C75.3154 17.7692 75.5524 17 75.5524 15.8462C75.5743 15.273 75.4941 14.7004 75.3154 14.1538C75.1375 13.7617 74.832 13.4373 74.446 13.2308C73.9017 12.9893 73.3042 12.8836 72.7074 12.9231H71.601V18.6923H72.5493V18.7692Z" fill="#111111"/>
<path d="M81.1635 27.4615C80.342 26.1166 79.9564 24.5617 80.0571 23V17.1538C80.0376 16.0391 80.1705 14.9268 80.4522 13.8462C80.7167 13.0386 81.2437 12.3367 81.9538 11.8462C82.8362 11.3377 83.8542 11.0967 84.8779 11.1538C86.5375 11.1538 87.723 11.5385 88.4343 12.3846C89.2524 13.5019 89.6438 14.8624 89.5407 16.2308V16.8462H87.1698V16.3077C87.1734 15.6635 87.1205 15.0201 87.0117 14.3846C86.9451 13.983 86.7178 13.6235 86.3795 13.3846C85.9353 13.1008 85.4081 12.9658 84.8779 13C84.3113 12.9647 83.7504 13.1284 83.2973 13.4615C83.1114 13.614 82.9595 13.8018 82.8508 14.0134C82.742 14.2251 82.6789 14.4561 82.6651 14.6923C82.5609 15.38 82.5081 16.0741 82.507 16.7692V23.3077C82.4488 24.3038 82.6105 25.3006 82.9812 26.2308C83.2973 26.8462 83.9296 27.0769 84.8779 27.0769C85.2524 27.1223 85.6322 27.0589 85.9697 26.8947C86.3072 26.7304 86.5873 26.4727 86.7746 26.1538C87.1922 25.1811 87.3812 24.1299 87.3278 23.0769V21.8462H85.036V20.0769H89.6197V28.7692H88.0391L87.802 26.7692C87.5948 27.4395 87.1634 28.0231 86.5763 28.4273C85.9892 28.8315 85.2801 29.0331 84.5618 29C83.9088 29.0374 83.2565 28.9164 82.6633 28.6479C82.0702 28.3794 81.5549 27.9717 81.1635 27.4615Z" fill="#111111"/>
<path d="M94.6776 22.6154L90.8052 11.3077H93.1761L95.9421 19.7692L98.6291 11.3077H101L97.1275 22.6154V28.7692H94.7566V22.6154H94.6776Z" fill="#111111"/>
</g>
<defs>
<clipPath id="clip0_59359_600">
<rect width="101" height="18" fill="white" transform="translate(0 11)"/>
</clipPath>
</defs>
</svg>
