<svg width="40" height="41" viewBox="0 0 40 41" fill="none" xmlns="http://www.w3.org/2000/svg">
<path d="M9.19388 21.9365V19.6531C16.0139 18.7259 22.8916 18.2768 29.7755 18.3093C29.7755 18.9155 29.7755 19.5318 29.7143 20.1482C31.671 19.2884 33.7273 18.6707 35.8367 18.3093C34.4923 14.8659 32.0426 11.9553 28.8644 10.0251C25.6862 8.09498 21.9555 7.25222 18.2463 7.62649C14.5372 8.00077 11.0549 9.57134 8.33522 12.0966C5.61556 14.6219 3.80915 17.962 3.19388 21.6031L9.19388 21.9365Z" fill="#FDC305"/>
<path d="M30.7959 25.4829C29.6122 26.7762 29.3776 26.6954 29.3776 28.9687C29.3776 29.8881 29.3776 33.9195 29.3776 38.2439C31.7169 36.7142 33.6373 34.6347 34.9674 32.1912C36.2974 29.7476 36.9957 27.016 37 24.2402C36.9865 23.1885 36.8773 22.1402 36.6735 21.108C34.5594 22.3503 32.5885 23.8172 30.7959 25.4829Z" fill="#FDC305"/>
<path d="M9.4898 26.9884C9.4898 26.9884 5.62245 25.5334 4.19388 25.1394C3.80313 25.0174 3.40418 24.9229 3 24.8565C3.11061 27.7724 3.98529 30.6096 5.53815 33.0896C7.09101 35.5696 9.26863 37.607 11.8571 39.0017L9.4898 26.9884Z" fill="#FDC305"/>
<path d="M29.8265 18.2992C29.868 12.7206 29.3898 7.15006 28.398 1.65841C28.398 1.65841 28.2551 0.355033 27.4898 1.41592C26.8887 2.677 26.4762 4.01802 26.2653 5.39678C21.9202 5.1197 17.5587 5.23469 13.2347 5.7403C12.4286 3.02241 11.0102 1.75945 10.3265 2.01204C9.64286 2.26463 9.59184 5.35636 9.59184 5.35636L9.2551 19.6026C16.0727 18.6892 22.947 18.2537 29.8265 18.2992V18.2992Z" fill="#F06351"/>
<path d="M15.6633 15.1468C15.6633 15.0559 16.6837 15.8339 17.102 16.0764C17.5204 16.3189 17.7245 16.5007 17.7245 16.6725C17.7245 16.8443 17.449 17.016 17.0816 17.016C16.7143 17.016 16.1531 16.8948 16.0612 16.7432H17.0204H17.3163C16.6946 16.2879 16.1385 15.7509 15.6633 15.1468V15.1468Z" fill="black"/>
<path d="M23.2959 15.258L22.1837 16.6018C22.1837 16.6624 22.0102 16.9554 22.3673 16.9049C22.79 16.8425 23.2065 16.7445 23.6122 16.6119C23.7245 16.6119 23.6837 16.4199 23.5 16.4401C23.3163 16.4603 22.7959 16.4906 22.4796 16.5513L23.3367 15.2782C23.3367 15.2782 23.4082 15.1468 23.2959 15.258Z" fill="black"/>
<path d="M20.0918 21.4111C20.5648 21.2048 20.9558 20.8496 21.2041 20.4008C21.4898 19.744 21.2041 19.4813 20.7551 19.3904C20.1407 19.2794 19.5066 19.4021 18.9796 19.7339C18.5816 20.0977 18.6327 20.4614 18.9286 20.7443C19.287 21.0133 19.6778 21.2372 20.0918 21.4111V21.4111Z" fill="black"/>
<path d="M19.6837 22.6741C19.5693 22.905 19.4098 23.111 19.2143 23.2803C18.9237 23.5118 18.5664 23.6462 18.1939 23.6643C17.657 23.7067 17.1231 23.552 16.6939 23.2298C16.4921 23.1093 16.3098 22.9595 16.1531 22.7852C16.0505 22.6732 15.9254 22.5837 15.7857 22.5225C15.7857 22.5225 16.551 26.6651 18.4082 27.3218C20.2653 27.9785 20.5918 26.564 20.6531 26.1801C20.7144 25.0334 20.4226 23.8954 19.8163 22.9166C19.7959 22.6034 19.7857 22.8054 19.6837 22.6741Z" fill="#F06351"/>
<path d="M18.0102 23.8259C17.536 23.76 17.0805 23.5987 16.6716 23.3519C16.2627 23.1052 15.9092 22.7783 15.6327 22.3912C15.6191 22.378 15.6083 22.3623 15.6009 22.345C15.5936 22.3276 15.5898 22.309 15.5898 22.2902C15.5898 22.2713 15.5936 22.2527 15.6009 22.2354C15.6083 22.218 15.6191 22.2023 15.6327 22.1891C15.646 22.1757 15.6618 22.165 15.6794 22.1577C15.6969 22.1504 15.7157 22.1467 15.7347 22.1467C15.7537 22.1467 15.7725 22.1504 15.79 22.1577C15.8076 22.165 15.8234 22.1757 15.8367 22.1891C16.3518 22.8905 17.1255 23.3625 17.9898 23.5026V23.5026C18.3282 23.4774 18.6557 23.3725 18.945 23.1968C19.2343 23.0211 19.477 22.7795 19.6531 22.4922L19.7959 22.3003L19.898 22.5124C19.898 22.5124 20.2755 23.2803 20.9184 23.3207C21.5612 23.3611 21.9898 22.9065 22.5612 22.0275C22.5745 22.014 22.5904 22.0033 22.6079 21.996C22.6254 21.9888 22.6443 21.985 22.6633 21.985C22.6823 21.985 22.7011 21.9888 22.7186 21.996C22.7361 22.0033 22.752 22.014 22.7653 22.0275C22.7983 22.0483 22.8219 22.0809 22.8314 22.1184C22.8409 22.156 22.8355 22.1958 22.8163 22.2295C22.1633 23.2399 21.5204 23.6845 20.898 23.644C20.6612 23.61 20.4354 23.5232 20.2374 23.3902C20.0395 23.2571 19.8745 23.0814 19.7551 22.8762C19.5544 23.1535 19.2935 23.3828 18.9915 23.5471C18.6896 23.7115 18.3542 23.8067 18.0102 23.8259V23.8259Z" fill="black"/>
<path d="M29.7755 20.1179C27.9433 21.7584 26.2155 23.5097 24.602 25.3617C22.9986 27.2068 21.1876 28.8644 19.2041 30.3024C18.9796 29.7669 17.551 28.7767 17.551 28.7767C17.551 28.7767 14.3571 26.6145 12.2653 24.9171C11.1369 23.9748 10.0701 22.9624 9.07143 21.886L7.03061 21.7749C9.97977 26.024 14.2961 29.1582 19.2755 30.6661C20.1531 30.5247 22.6122 28.7868 24.449 27.3723C26.6111 25.5353 28.6368 23.5465 30.5102 21.4212C31.023 20.8262 31.4176 20.1406 31.6735 19.4005C30.551 19.7945 29.7755 20.1179 29.7755 20.1179Z" fill="#F06351"/>
</svg>
