<svg width="64" height="54" viewBox="0 0 64 54" fill="none" xmlns="http://www.w3.org/2000/svg">
<circle cx="32" cy="27" r="25" fill="#68B738"/>
<g clip-path="url(#clip0_59359_686)">
<path d="M57.9567 16.6928C58.4909 15.84 59.2008 15.1118 60.0388 14.5571C60.5015 14.2321 60.7791 14.2321 61.0567 14.8357C61.4268 15.7178 61.7507 16.6464 61.4731 17.6214C61.4226 17.7868 61.4131 17.962 61.4453 18.1319C61.4776 18.3018 61.5506 18.4613 61.6582 18.5964C61.9358 18.9678 62.1671 19.3393 62.3985 19.6643C62.7134 20.0653 62.9176 20.5424 62.9907 21.0476C63.0638 21.5529 63.0031 22.0685 62.8149 22.5428C62.645 23.0033 62.6129 23.5036 62.7224 23.9821C62.8148 24.4418 62.8148 24.9153 62.7224 25.375C62.685 25.7192 62.5461 26.0444 62.3236 26.3091C62.1011 26.5737 61.805 26.7658 61.4731 26.8607C60.8813 26.9737 60.3531 27.305 59.9925 27.7893C59.9488 27.8606 59.8875 27.9194 59.8146 27.9601C59.7417 28.0007 59.6595 28.0219 59.5761 28.0214C59.0209 28.1143 57.6328 26.8607 57.6328 26.3036V26.025C57.6791 24.3536 57.5865 24.2143 56.0597 23.5178C55.7401 23.4048 55.4538 23.2132 55.2268 22.9607C54.9492 22.5893 54.5791 22.6357 54.1627 22.775C53.7462 22.9143 53.5149 23.1928 53.5612 23.6571C53.7007 24.7811 53.7471 25.9147 53.7 27.0464C53.703 27.1756 53.7347 27.3024 53.7925 27.4178C55.2268 29.5071 55.7821 31.9678 56.4761 34.3357C57.0313 36.1464 58.0492 37.1214 59.9 37.2607C60.1961 37.2844 60.49 37.331 60.7791 37.4C61.1593 37.4613 61.5125 37.6356 61.793 37.9005C62.0734 38.1654 62.2682 38.5086 62.3522 38.8857C62.6761 39.8607 62.491 40.0929 61.5194 40.0929H58.5119C58.1226 40.1126 57.7408 39.9794 57.4477 39.7214C56.9795 39.3249 56.4475 39.0109 55.8746 38.7929C55.2412 38.5582 54.693 38.1376 54.3015 37.5857C53.7595 36.8259 53.1392 36.1256 52.4507 35.4964C51.1552 34.15 49.7671 32.85 48.5642 31.4571C47.6484 30.508 47.1201 29.2491 47.0836 27.9286C47.0836 27.5107 46.991 27.325 46.5283 27.5107C46.3898 27.5989 46.2297 27.6471 46.0656 27.65C44.7701 27.65 44.1224 28.4393 43.6597 29.6C43.2433 30.575 42.688 31.5036 42.1791 32.4786C41.8905 33.0889 41.7329 33.7532 41.7164 34.4286C41.7164 35.5428 41.994 35.9143 43.0119 36.2857C43.6597 36.5178 44.2612 36.75 44.5851 37.4C44.9552 38.1429 44.8627 38.3286 44.0761 38.375H40.9298C40.7484 38.393 40.566 38.3534 40.4083 38.2618C40.2505 38.1701 40.1255 38.0311 40.0507 37.8643L39.2179 36.4714C38.9724 36.108 38.8152 35.6919 38.759 35.2565C38.7027 34.8211 38.749 34.3785 38.894 33.9643C39.0942 33.158 39.1101 32.3168 38.9403 31.5036C38.8236 30.9372 38.8337 30.3519 38.9697 29.7899C39.1057 29.2279 39.3643 28.7032 39.7268 28.2536C40.0045 27.9286 40.0045 27.7893 39.5418 27.6964C37.6498 27.2931 35.8156 26.6536 34.0821 25.7928C34.0698 25.7928 34.058 25.788 34.0494 25.7792C34.0407 25.7705 34.0358 25.7587 34.0358 25.7464C32.5552 25.1893 32.2776 25.2821 31.8612 26.8143C31.491 28.1143 31.1209 29.4143 30.8433 30.7607C30.5194 32.2464 30.8895 33.6393 31.3522 35.0321C31.5373 35.5893 32.0925 35.5428 32.5089 35.6821C33.4343 35.9607 34.2209 36.3321 34.591 37.3071C34.9149 38.05 34.8686 38.1428 34.0821 38.1428C33.2955 38.1428 32.5089 38.0964 31.6761 38.1428C30.9733 38.1556 30.2874 37.9262 29.7328 37.4928C27.5119 36.0071 26.8642 33.7321 26.6791 31.2714C26.5865 29.7393 25.7537 28.5321 24.7821 27.3714C24.597 27.1393 24.4119 27.0464 24.1343 27.2321C23.1411 27.7816 22.1042 28.2475 21.0343 28.625C18.8015 29.4161 16.8422 30.8343 15.3895 32.7107C14.8471 33.3955 14.4958 34.2127 14.3716 35.0786C14.2328 35.9143 14.4642 36.2857 15.297 36.5178C16.1298 36.75 16.5462 37.2143 16.6388 38.0964C16.6851 38.4679 16.5462 38.6536 16.1761 38.6536H12.4283C12.3057 38.6448 12.1869 38.6065 12.0822 38.5418C11.9775 38.4772 11.8899 38.3881 11.8268 38.2821C11.2456 37.5601 10.9346 36.6566 10.9477 35.7286C10.9235 34.1244 11.063 32.522 11.3642 30.9464C11.4259 30.4746 11.6015 30.0249 11.8756 29.6366C12.1498 29.2482 12.5142 28.9329 12.9373 28.7178C15.6671 27.4178 17.1015 24.9571 18.397 22.4036C18.6746 21.8928 18.4433 21.8 17.9806 21.8464C16.6857 22.0268 15.4588 22.5384 14.4179 23.3321C13.0549 24.3298 11.771 25.4319 10.5776 26.6286C9.30504 27.9256 7.61765 28.7311 5.81192 28.9036C2.43431 29.0893 0.861175 27.1857 0.999981 24.1214C1.03101 23.0766 1.42364 22.0752 2.11043 21.2893C2.34919 20.9787 2.67478 20.7465 3.04564 20.6225C3.4165 20.4984 3.81579 20.4881 4.19252 20.5928C4.88655 20.7786 5.07162 21.15 4.79401 21.8464C4.6552 22.125 4.47013 22.3571 4.33132 22.6357C4.13172 22.9203 3.97576 23.2333 3.86864 23.5643C3.35968 24.9571 4.05371 25.9321 5.48804 26.0714C7.01491 26.2107 8.26416 25.5607 9.42088 24.6321C10.8145 23.5124 12.0585 22.2172 13.1224 20.7786C13.9178 19.7281 14.9195 18.8524 16.0654 18.2055C17.2114 17.5587 18.4773 17.1545 19.7851 17.0178C20.8492 16.8786 21.7746 16.4143 22.7925 16.1357C24.6962 15.5533 26.6786 15.2714 28.6686 15.3C29.5904 15.3385 30.5086 15.1638 31.3522 14.7893C33.6194 13.8607 35.9791 13.8607 38.3388 14.325C40.1895 14.6964 42.0403 15.1607 43.8448 15.625C44.9186 15.8258 46.0229 15.7941 47.0836 15.5321C49.1141 15.0156 51.1912 14.7046 53.2836 14.6036C54.6543 14.5366 56.0204 14.8076 57.2627 15.3928C58.188 15.8107 58.188 15.8107 57.9567 16.6928Z" fill="black"/>
</g>
<defs>
<clipPath id="clip0_59359_686">
<rect width="62" height="26" fill="white" transform="translate(1 14)"/>
</clipPath>
</defs>
</svg>
