<svg width="64" height="54" viewBox="0 0 64 54" fill="none" xmlns="http://www.w3.org/2000/svg">
<circle cx="32" cy="27" r="25" fill="#68B738"/>
<g clip-path="url(#clip0_59359_631)">
<path d="M42.2034 2H42.008C41.6778 2.18708 41.415 2.47392 41.2571 2.81959C40.968 3.37738 40.7453 3.96735 40.5937 4.57732C40.5612 4.76073 40.4688 4.92811 40.331 5.05315C40.1932 5.17818 40.0179 5.25377 39.8326 5.26804C39.2658 5.36597 38.7288 5.59243 38.2626 5.93012C37.7965 6.26781 37.4135 6.7078 37.1429 7.21649C36.7708 7.87697 36.4526 8.5665 36.1914 9.27835C35.4611 11.1753 34.9006 13.134 34.2114 15.0464C33.8874 15.9175 33.872 15.9175 32.8949 15.9175C31.7274 15.9175 31.8097 15.7371 31.7943 17.0258C31.7943 17.433 31.9177 17.6392 32.3497 17.6186C32.4834 17.6186 32.684 17.5515 32.7354 17.7268C32.7869 17.9021 32.612 17.9794 32.5091 18.0825C31.8994 18.7029 31.1276 19.1388 30.2823 19.3402C29.3051 19.6031 28.3074 19.8093 27.356 20.1289C24.9131 20.9485 22.6554 22.0928 20.8966 24.0309C19.8681 25.2347 19.0445 26.6001 18.4589 28.0722C16.5714 32.5258 15.656 37.2165 14.9463 41.9536C14.612 44.1753 14.3754 46.4072 14.1954 48.6546C14.1029 49.7577 14 50.8763 14 52H31.1411C31.1696 51.7731 31.1283 51.543 31.0229 51.3402C30.858 50.9289 30.5901 50.5672 30.2451 50.29C29.9 50.0128 29.4895 49.8295 29.0531 49.7577C28.6931 49.6753 28.652 49.567 28.8731 49.2835C29.2338 48.801 29.5103 48.2607 29.6909 47.6856C30.5291 45.2062 30.8531 42.6186 31.2594 40.0567C31.4889 38.0999 32.0894 36.2051 33.0286 34.4742C33.7611 33.2002 34.7382 32.0842 35.9034 31.1907C36.3303 30.866 36.3457 30.866 36.4177 31.4175C36.4691 31.7835 36.4794 32.1598 36.5051 32.5309C36.6595 34.9662 36.6285 37.4097 36.4126 39.8402C36.2184 41.7242 36.1926 43.6217 36.3354 45.5103C36.5399 47.7029 36.9304 49.8739 37.5029 52H44.3429C44.2536 51.442 43.9973 50.9243 43.6078 50.5156C43.2184 50.1069 42.7143 49.8264 42.1623 49.7113C41.5177 49.6087 40.8587 49.6438 40.2286 49.8144C39.92 49.8866 39.7914 49.8144 39.7657 49.4794C39.5529 46.7505 39.7261 44.0051 40.28 41.3247C40.966 38.2304 41.4912 35.1025 41.8537 31.9536C41.9887 30.6819 42.3881 29.4528 43.0263 28.3454C43.6383 27.2526 44.1731 26.1186 44.7749 25.0206C45.0138 24.6214 45.1575 24.1723 45.195 23.7083C45.2325 23.2443 45.1626 22.7779 44.9909 22.3454C44.852 21.9794 44.7183 21.6082 44.5486 21.2577C44.0343 20.2526 43.52 19.2577 43.0469 18.2423C42.7949 17.7268 42.8514 17.6649 43.412 17.6495C44.2503 17.6495 44.2503 17.6495 44.2657 16.8041C44.2657 16.6907 44.2657 16.5773 44.2657 16.4639C44.2657 16.1082 44.132 15.9124 43.7514 15.9485C43.4943 15.9485 43.2371 15.9485 42.9697 15.9485C42.6149 15.9485 42.512 15.799 42.5994 15.433C42.7729 14.838 43.1142 14.306 43.5823 13.9009C44.0503 13.4958 44.6252 13.2349 45.2377 13.1495C46.3772 13.0505 47.5251 13.1252 48.6423 13.3711C48.7712 13.4118 48.9109 13.4001 49.0312 13.3383C49.1515 13.2766 49.2427 13.1699 49.2851 13.0412C49.4909 12.5258 49.7171 12.0103 49.9486 11.4948C50.001 11.4034 50.0242 11.298 50.015 11.1929C50.0058 11.0878 49.9647 10.9881 49.8971 10.9072C48.2514 8.81443 46.4669 6.86082 44.0343 5.60825C43.9168 5.55754 43.8138 5.47814 43.7347 5.3773C43.6557 5.27646 43.6031 5.15738 43.5817 5.03093C43.444 4.29408 43.225 3.57487 42.9286 2.8866C42.7895 2.5199 42.5349 2.20865 42.2034 2V2Z" fill="black"/>
</g>
<defs>
<clipPath id="clip0_59359_631">
<rect width="36" height="50" fill="white" transform="translate(14 2)"/>
</clipPath>
</defs>
</svg>
